<?xml version="1.0" encoding="UTF-8" standalone="no"?>
<!-- Generator: Adobe Illustrator 19.0.0, SVG Export Plug-In . SVG Version: 6.00 Build 0)  -->

<svg
   xmlns:dc="http://purl.org/dc/elements/1.1/"
   xmlns:cc="http://creativecommons.org/ns#"
   xmlns:rdf="http://www.w3.org/1999/02/22-rdf-syntax-ns#"
   xmlns:svg="http://www.w3.org/2000/svg"
   xmlns="http://www.w3.org/2000/svg"
   xmlns:sodipodi="http://sodipodi.sourceforge.net/DTD/sodipodi-0.dtd"
   xmlns:inkscape="http://www.inkscape.org/namespaces/inkscape"
   version="1.1"
   id="Capa_1"
   x="0px"
   y="0px"
   viewBox="0 0 14 14"
   xml:space="preserve"
   sodipodi:docname="money.svg"
   width="14"
   height="14"
   inkscape:version="0.92.3 (2405546, 2018-03-11)"><metadata
   id="metadata4207"><rdf:RDF><cc:Work
       rdf:about=""><dc:format>image/svg+xml</dc:format><dc:type
         rdf:resource="http://purl.org/dc/dcmitype/StillImage" /><dc:title></dc:title></cc:Work></rdf:RDF></metadata><defs
   id="defs4205" /><sodipodi:namedview
   pagecolor="#ffffff"
   bordercolor="#666666"
   borderopacity="1"
   objecttolerance="10"
   gridtolerance="10"
   guidetolerance="10"
   inkscape:pageopacity="0"
   inkscape:pageshadow="2"
   inkscape:window-width="1920"
   inkscape:window-height="1155"
   id="namedview4203"
   showgrid="false"
   inkscape:zoom="41.7193"
   inkscape:cx="12.521544"
   inkscape:cy="6.7825093"
   inkscape:window-x="0"
   inkscape:window-y="22"
   inkscape:window-maximized="0"
   inkscape:current-layer="Capa_1" />
<path
   style="fill:#fedb41;stroke-width:0.02664094"
   d="m 7.0624491,0.14411087 c -3.7483272,0 -6.84672162,3.04505973 -6.84672162,6.79344003 0,3.7483771 3.09839442,6.8467191 6.84672162,6.8467191 3.7483299,0 6.7934429,-3.098342 6.7934429,-6.8467191 0,-3.7483803 -3.045113,-6.79344003 -6.7934429,-6.79344003 z"
   id="path4160"
   inkscape:connector-curvature="0" />
<path
   style="fill:#ffcc33;stroke-width:0.02664094"
   d="m 13.855892,6.9375509 c 0,3.7483771 -3.045113,6.8467191 -6.7934429,6.8467191 V 0.14411087 c 3.7483299,0 6.7934429,3.04505973 6.7934429,6.79344003 z"
   id="path4162"
   inkscape:connector-curvature="0" />
<path
   style="fill:#fea832;stroke-width:0.02664094"
   d="m 7.0624491,1.7425675 c -2.8612904,0 -5.2482654,2.3337198 -5.2482654,5.1949834 0,2.8612638 2.386975,5.2482621 5.2482654,5.2482621 2.8612902,0 5.1949859,-2.3869983 5.1949859,-5.2482621 0,-2.8612636 -2.3336957,-5.1949834 -5.1949859,-5.1949834 z"
   id="path4164"
   inkscape:connector-curvature="0" />
<path
   style="fill:#fe9923;stroke-width:0.02664094"
   d="m 12.257435,6.9375509 c 0,2.8612638 -2.3336957,5.2482621 -5.1949859,5.2482621 V 1.7425675 c 2.8612902,0 5.1949859,2.3337198 5.1949859,5.1949834 z"
   id="path4166"
   inkscape:connector-curvature="0" />
<path
   style="fill:#fedb41;stroke-width:0.02664094"
   d="M 7.8616773,6.5379368 H 7.4620632 V 4.9394804 h 0.3996141 c 0.2238106,0 0.399614,0.1758036 0.399614,0.3996141 0,0.527464 0.7992283,0.527464 0.7992283,0 0,-0.663386 -0.5354296,-1.1988423 -1.1988423,-1.1988423 H 7.4620632 V 3.740638 c 0,-0.2637719 -0.1998071,-0.3996141 -0.3996141,-0.3996141 -0.1998071,0 -0.3996142,0.1358422 -0.3996142,0.3996141 V 4.1402522 H 6.209939 c -0.6634127,0 -1.1988424,0.5354563 -1.1988424,1.1988423 v 0.7992282 c 0,0.663386 0.5354297,1.1988424 1.1988424,1.1988424 H 6.6628349 V 8.9889034 H 6.209939 c -0.2238106,0 -0.3996142,-0.1758036 -0.3996142,-0.3996141 0,-0.527464 -0.7992282,-0.527464 -0.7992282,0 0,0.663386 0.5354297,1.1988424 1.1988424,1.1988424 h 0.4528959 v 0.3996113 c 0,0.263772 0.1998071,0.399615 0.3996142,0.399615 0.199807,0 0.3996141,-0.135843 0.3996141,-0.399615 V 9.7881317 h 0.3996141 c 0.6634127,0 1.1988423,-0.5354564 1.1988423,-1.1988424 V 7.7367792 c 0,-0.6633861 -0.5354296,-1.1988424 -1.1988423,-1.1988424 z m -1.1988424,0 H 6.209939 c -0.2238106,0 -0.3996142,-0.1758036 -0.3996142,-0.3996141 V 5.3390945 c 0,-0.2238105 0.1758036,-0.3996141 0.3996142,-0.3996141 h 0.4528959 z m 1.5984564,2.0513525 c 0,0.2238105 -0.1758034,0.3996141 -0.399614,0.3996141 H 7.4620632 V 7.3371651 h 0.3996141 c 0.2238106,0 0.399614,0.1758035 0.399614,0.3996141 z"
   id="path4168"
   inkscape:connector-curvature="0" />
<path
   style="fill:#ffcc33;stroke-width:0.02664094"
   d="M 7.8616773,6.5379368 H 7.4620632 V 4.9394804 h 0.3996141 c 0.2238106,0 0.399614,0.1758036 0.399614,0.3996141 0,0.527464 0.7992283,0.527464 0.7992283,0 0,-0.663386 -0.5354296,-1.1988423 -1.1988423,-1.1988423 H 7.4620632 V 3.740638 c 0,-0.2637719 -0.1998071,-0.3996141 -0.3996141,-0.3996141 v 7.2463341 c 0.199807,0 0.3996141,-0.135843 0.3996141,-0.399615 V 9.7881317 h 0.3996141 c 0.6634127,0 1.1988423,-0.5354564 1.1988423,-1.1988424 V 7.7367792 c 0,-0.6633861 -0.5354296,-1.1988424 -1.1988423,-1.1988424 z m 0.399614,2.0513525 c 0,0.2238105 -0.1758034,0.3996141 -0.399614,0.3996141 H 7.4620632 V 7.3371651 h 0.3996141 c 0.2238106,0 0.399614,0.1758035 0.399614,0.3996141 z"
   id="path4170"
   inkscape:connector-curvature="0" />
<g
   id="g4172"
   transform="translate(0,-498)">
</g>
<g
   id="g4174"
   transform="translate(0,-498)">
</g>
<g
   id="g4176"
   transform="translate(0,-498)">
</g>
<g
   id="g4178"
   transform="translate(0,-498)">
</g>
<g
   id="g4180"
   transform="translate(0,-498)">
</g>
<g
   id="g4182"
   transform="translate(0,-498)">
</g>
<g
   id="g4184"
   transform="translate(0,-498)">
</g>
<g
   id="g4186"
   transform="translate(0,-498)">
</g>
<g
   id="g4188"
   transform="translate(0,-498)">
</g>
<g
   id="g4190"
   transform="translate(0,-498)">
</g>
<g
   id="g4192"
   transform="translate(0,-498)">
</g>
<g
   id="g4194"
   transform="translate(0,-498)">
</g>
<g
   id="g4196"
   transform="translate(0,-498)">
</g>
<g
   id="g4198"
   transform="translate(0,-498)">
</g>
<g
   id="g4200"
   transform="translate(0,-498)">
</g>
</svg>