<?xml version="1.0" encoding="UTF-8" standalone="no"?>
<svg
   xmlns:dc="http://purl.org/dc/elements/1.1/"
   xmlns:cc="http://creativecommons.org/ns#"
   xmlns:rdf="http://www.w3.org/1999/02/22-rdf-syntax-ns#"
   xmlns:svg="http://www.w3.org/2000/svg"
   xmlns="http://www.w3.org/2000/svg"
   xmlns:sodipodi="http://sodipodi.sourceforge.net/DTD/sodipodi-0.dtd"
   xmlns:inkscape="http://www.inkscape.org/namespaces/inkscape"
   id="reg"
   enable-background="new 0 0 24 24"
   height="14"
   viewBox="0 0 0.65625 0.65625"
   width="14"
   version="1.1"
   sodipodi:docname="oss.svg"
   inkscape:version="0.92.3 (2405546, 2018-03-11)">
  <metadata
     id="metadata4074">
    <rdf:RDF>
      <cc:Work
         rdf:about="">
        <dc:format>image/svg+xml</dc:format>
        <dc:type
           rdf:resource="http://purl.org/dc/dcmitype/StillImage" />
        <dc:title></dc:title>
      </cc:Work>
    </rdf:RDF>
  </metadata>
  <defs
     id="defs4072" />
  <sodipodi:namedview
     pagecolor="#ffffff"
     bordercolor="#666666"
     borderopacity="1"
     objecttolerance="10"
     gridtolerance="10"
     guidetolerance="10"
     inkscape:pageopacity="0"
     inkscape:pageshadow="2"
     inkscape:window-width="1920"
     inkscape:window-height="1155"
     id="namedview4070"
     showgrid="false"
     inkscape:zoom="29.21875"
     inkscape:cx="13.125045"
     inkscape:cy="2.3929291"
     inkscape:window-x="0"
     inkscape:window-y="22"
     inkscape:window-maximized="0"
     inkscape:current-layer="reg" />
  <path
     d="M 0.22423803,0.62788137 C -0.09762883,0.51110139 -0.0131986,0.03141572 0.32930801,0.03141572 c 0.34237286,0 0.427017,0.47965891 0.10506998,0.59646565 L 0.35925159,0.42736625 c 0.0997497,-0.0332588 0.0756878,-0.18206773 -0.0299436,-0.18206773 -0.1055243,0 -0.12977329,0.14878228 -0.0299436,0.18206773 z"
     id="path4065"
     inkscape:connector-curvature="0"
     style="fill:#4caf50;stroke-width:0.02673535" />
  <path
     d="m 0.21929199,0.63571482 c 0,0 0.0192762,0.006979 0.0259868,-0.0115499 0.0833073,-0.21898924 0.0728271,-0.19126468 0.0737895,-0.19409863 0.002914,-0.00885 -0.002272,-0.0213349 -0.0119241,-0.0249975 -1.6041e-4,-5.346e-5 -3.2082e-4,-2.674e-5 -4.812e-4,-8.02e-5 -1.3368e-4,-5.348e-5 -2.4062e-4,-1.6042e-4 -4.0103e-4,-2.139e-4 -0.041734,-0.0137155 -0.0515189,-0.0499149 -0.0472414,-0.076784 0.004412,-0.027484 0.025452,-0.0595664 0.0702872,-0.0595664 0.0448352,0 0.0658758,0.0321091 0.0702605,0.0595931 0.004305,0.0268424 -0.005507,0.0630686 -0.0472415,0.076784 -1.604e-4,5.349e-5 -2.406e-4,1.6042e-4 -4.0101e-4,2.1391e-4 -1.6042e-4,5.346e-5 -3.2084e-4,2.672e-5 -4.8121e-4,8.019e-5 -0.0170038,0.00647 -0.0124042,0.0230993 -0.0117105,0.0253985 0.0114704,0.0301842 0.0778265,0.20489972 0.0735756,0.19372435 0.003796,0.009972 0.0150251,0.0154804 0.0255056,0.011737 1.0696e-4,-2.674e-5 1.8714e-4,-8.02e-5 2.6736e-4,-1.0694e-4 2.674e-5,0 8.02e-5,0 1.0694e-4,-2.674e-5 5.347e-5,-2.674e-5 8.02e-5,-5.348e-5 1.0694e-4,-8.02e-5 C 0.61227425,0.57366186 0.66702823,0.41490743 0.6445171,0.28497364 0.62187227,0.15415744 0.51559929,0.02219189 0.32930732,0.02219189 c -0.18631864,0 -0.29259165,0.1319389 -0.31526323,0.26267479 -0.02251116,0.12996055 0.03224283,0.28876852 0.2052479,0.35084814 z M 0.05358629,0.29171109 C 0.07337046,0.17752437 0.16630252,0.06229506 0.32930795,0.06229506 c 0.16297875,0 0.25591078,0.11528294 0.27572167,0.22952297 0.0188485,0.10875929 -0.0246235,0.24045774 -0.16148154,0.29892793 L 0.38414226,0.43455807 c 0.0463056,-0.0244361 0.0615181,-0.0723192 0.0550213,-0.1128766 -0.007192,-0.0449689 -0.0446214,-0.0933598 -0.1098555,-0.0933598 -0.0652343,0 -0.10269047,0.048391 -0.10988233,0.0933598 -0.006497,0.0405576 0.008744,0.0884139 0.0550481,0.1128766 L 0.21506783,0.5907193 C 0.07820957,0.53224901 0.03471115,0.40049722 0.05358629,0.29171109 Z"
     id="path4067"
     inkscape:connector-curvature="0"
     style="stroke-width:0.02673535" />
</svg>
